<svg id="Capa_1" enable-background="new 0 0 512 512" height="512" viewBox="0 0 512 512" width="512" xmlns="http://www.w3.org/2000/svg" xmlns:xlink="http://www.w3.org/1999/xlink"><linearGradient id="SVGID_1_" gradientUnits="userSpaceOnUse" x1="256" x2="256" y1="436" y2="76"><stop offset="0" stop-color="#5558ff"/><stop offset="1" stop-color="#00c0ff"/></linearGradient><g><g><path d="m376 76c-26.389 0-46.369 8.196-65.692 16.122-17.4 7.137-33.833 13.878-54.308 13.878s-36.908-6.741-54.308-13.878c-19.323-7.926-39.303-16.122-65.692-16.122-74.99 0-136 60.561-136 135v105c0 66.168 54.28 120 121 120h40.106c37.47 0 72.55-17.483 95.124-46.841 22.922 28.95 58.302 46.841 96.852 46.841h37.918c66.72 0 121-53.832 121-120v-105c0-74.439-61.01-135-136-135zm15 330h-37.918c-35.659 0-67.719-19.813-83.666-51.708-2.54-5.082-7.734-8.292-13.417-8.292-10.813 0-14.021 9.811-14.394 10.249-15.343 30.688-46.189 49.751-80.499 49.751h-40.106c-50.178 0-91-40.374-91-90s40.822-90 91-90h270c50.178 0 91 40.374 91 90s-40.822 90-91 90zm91-169c-22.195-25.114-54.76-41-91-41h-270c-36.24 0-68.805 15.886-91 41v-26c0-57.897 47.552-105 106-105 20.475 0 36.908 6.741 54.308 13.878 19.323 7.926 39.303 16.122 65.692 16.122s46.369-8.196 65.692-16.122c17.4-7.137 33.833-13.878 54.308-13.878 58.448 0 106 47.103 106 105zm-322.708 50.583-60 30c-7.41 3.705-10.413 12.715-6.708 20.125 3.698 7.397 12.702 10.419 20.124 6.708l60-30c7.41-3.705 10.413-12.715 6.708-20.125-3.704-7.408-12.713-10.412-20.124-6.708zm240 0-60 30c-7.41 3.705-10.413 12.715-6.708 20.125 3.698 7.397 12.702 10.419 20.124 6.708l60-30c7.41-3.705 10.413-12.715 6.708-20.125-3.704-7.408-12.714-10.412-20.124-6.708z" fill="url(#SVGID_1_)"/></g></g></svg>